<?xml version="1.0" encoding="utf-8"?>
<svg id="master-artboard" viewBox="0 0 124.39434051513672 40.88114547729492" version="1.1" xmlns="http://www.w3.org/2000/svg" x="0px" y="0px" style="enable-background:new 0 0 336 235.2;" width="124.39434051513672px" height="40.88114547729492px"><rect id="ee-background" x="0" y="0" width="124.39434051513672" height="40.88114547729492" style="fill: white; fill-opacity: 0; pointer-events: none;"/><defs><style id="ee-google-fonts">@import url(https://fonts.googleapis.com/css?family=Roboto:100,300,500,700,900,100italic,300italic,400,400italic,500italic,700italic,900italic);</style></defs><g transform="matrix(0.1860358864068985, 0, 0, 0.1860358864068985, -98.50379943847656, -137.87664699554443)"><g id="Layer_2_43_" transform="matrix(1, 0, 0, 1, 0, 0)">
	<g id="Layer_1-2_41_">
		<g>
			<path class="st0" d="M654,884c-29.2,0-53-23.8-53-53s23.8-53,53-53s53,23.8,53,53S683.2,884,654,884z M654,784&#10;&#9;&#9;&#9;&#9;c-25.9,0-47,21.1-47,47s21.1,47,47,47s47-21.1,47-47S679.9,784,654,784z" style="fill: rgb(0, 0, 255);"/>
		</g>
	</g>
</g></g><path d="M 232.30934143066406 226.50918579101562 L 293.21160888671875 315.44580078125 C 293.21160888671875 315.44580078125 232.30934143066406 227.4758758544922 232.30934143066406 226.50918579101562 Z" style="fill: rgb(0, 0, 255); fill-opacity: 0.69; stroke: rgb(0, 0, 255); stroke-opacity: 1; stroke-width: 7; paint-order: fill;" transform="matrix(0.03555532544851303, 0.12745517492294312, -0.12745517492294312, 0.03555532544851303, 37.91624069213867, -13.365320682525635)"/><g transform="matrix(0.21759535372257233, 0, 0, 0.21759535372257233, -10.232978820800781, -8.405576348304749)"><g id="Layer_2_4_" transform="matrix(1, 0, 0, 1, 0, 0)">
	<g id="Layer_1-2_4_">
		<path class="st0" d="M58,49h100v100H58V49z" style="fill: rgb(51, 51, 51); fill-opacity: 0; stroke: rgb(0, 0, 255); stroke-width: 2;" transform="matrix(1.68977294921875, 0, 0, 1.68977294921875, -40.0068310546875, -33.79887451171876)"/>
	</g>
</g></g><path d="M 500.1734924316406 142.8300018310547 L 507.9234924316406 142.8300018310547 L 507.9234924316406 145.1999969482422 L 497.2034912109375 145.1999969482422 L 497.2034912109375 128.13999938964844 L 500.1734924316406 128.13999938964844 L 500.1734924316406 142.8300018310547 ZM 517.43359375 143.95999145507812 C 516.6002807617188 144.94000244140625 515.4136352539062 145.42999267578125 513.8735961914062 145.42999267578125 C 512.5003051757812 145.42999267578125 511.46026611328125 145.02999877929688 510.75360107421875 144.22999572753906 C 510.040283203125 143.42332458496094 509.6836242675781 142.25999450683594 509.6836242675781 140.739990234375 L 509.6836242675781 132.51998901367188 L 512.5336303710938 132.51998901367188 L 512.5336303710938 140.6999969482422 C 512.5336303710938 142.30667114257812 513.20361328125 143.11000061035156 514.5435791015625 143.11000061035156 C 515.923583984375 143.11000061035156 516.85693359375 142.61666870117188 517.3436279296875 141.62998962402344 L 517.3436279296875 132.51998901367188 L 520.18359375 132.51998901367188 L 520.18359375 145.1999969482422 L 517.5036010742188 145.1999969482422 L 517.43359375 143.95999145507812 ZM 525.7293090820312 132.51998901367188 L 525.809326171875 133.989990234375 C 526.7493286132812 132.85665893554688 527.982666015625 132.2899932861328 529.5093383789062 132.2899932861328 C 532.1493530273438 132.2899932861328 533.49267578125 133.8000030517578 533.539306640625 136.8199920654297 L 533.539306640625 145.1999969482422 L 530.6893310546875 145.1999969482422 L 530.6893310546875 136.989990234375 C 530.6893310546875 136.18333435058594 530.5159912109375 135.586669921875 530.1693115234375 135.1999969482422 C 529.8226928710938 134.81332397460938 529.252685546875 134.6199951171875 528.4593505859375 134.6199951171875 C 527.3126831054688 134.6199951171875 526.4593505859375 135.13999938964844 525.8993530273438 136.17999267578125 L 525.8993530273438 145.1999969482422 L 523.04931640625 145.1999969482422 L 523.04931640625 132.51998901367188 L 525.7293090820312 132.51998901367188 ZM 544.0167846679688 145.1999969482422 C 543.89013671875 144.95999145507812 543.7801513671875 144.56666564941406 543.6868286132812 144.02000427246094 C 542.7801513671875 144.95999145507812 541.670166015625 145.42999267578125 540.3568115234375 145.42999267578125 C 539.08349609375 145.42999267578125 538.04345703125 145.06666564941406 537.23681640625 144.33999633789062 C 536.4301147460938 143.6133270263672 536.0267944335938 142.71665954589844 536.0267944335938 141.64999389648438 C 536.0267944335938 140.29666137695312 536.5301513671875 139.25999450683594 537.5368041992188 138.5399932861328 C 538.54345703125 137.81332397460938 539.9801635742188 137.4499969482422 541.8468017578125 137.4499969482422 L 543.5867919921875 137.4499969482422 L 543.5867919921875 136.6199951171875 C 543.5867919921875 135.96665954589844 543.4034423828125 135.44332885742188 543.0368041992188 135.0500030517578 C 542.670166015625 134.64999389648438 542.1134643554688 134.4499969482422 541.3668212890625 134.4499969482422 C 540.7135009765625 134.4499969482422 540.1801147460938 134.6133270263672 539.7667846679688 134.94000244140625 C 539.3534545898438 135.26666259765625 539.1467895507812 135.67999267578125 539.1467895507812 136.17999267578125 L 536.2968139648438 136.17999267578125 C 536.2968139648438 135.47999572753906 536.5301513671875 134.8300018310547 536.996826171875 134.22999572753906 C 537.456787109375 133.6233367919922 538.08349609375 133.14666748046875 538.8768310546875 132.8000030517578 C 539.670166015625 132.45999145507812 540.553466796875 132.2899932861328 541.5267944335938 132.2899932861328 C 543.0134887695312 132.2899932861328 544.19677734375 132.663330078125 545.0767822265625 133.41000366210938 C 545.9635009765625 134.14999389648438 546.4168090820312 135.19667053222656 546.4368286132812 136.5500030517578 L 546.4368286132812 142.27000427246094 C 546.4368286132812 143.41000366210938 546.5968017578125 144.3199920654297 546.9168090820312 145 L 546.9168090820312 145.1999969482422 L 544.0167846679688 145.1999969482422 M 540.8867797851562 143.14999389648438 C 541.44677734375 143.14999389648438 541.9734497070312 143.01333618164062 542.466796875 142.739990234375 C 542.966796875 142.46665954589844 543.3401489257812 142.09999084472656 543.5867919921875 141.63999938964844 L 543.5867919921875 139.25 L 542.0568237304688 139.25 C 541.0034790039062 139.25 540.2101440429688 139.43333435058594 539.6768188476562 139.8000030517578 C 539.1434936523438 140.16665649414062 538.8768310546875 140.68666076660156 538.8768310546875 141.36000061035156 C 538.8768310546875 141.9066619873047 539.0601196289062 142.33999633789062 539.4268188476562 142.66000366210938 C 539.7868041992188 142.98666381835938 540.2734985351562 143.14999389648438 540.8867797851562 143.14999389648438 ZM 556.531005859375 141.75 C 556.531005859375 141.2433319091797 556.3209838867188 140.85665893554688 555.9010009765625 140.58999633789062 C 555.4810180664062 140.3300018310547 554.7876586914062 140.09666442871094 553.8209838867188 139.88999938964844 C 552.8543090820312 139.69000244140625 552.0443115234375 139.43333435058594 551.3909912109375 139.1199951171875 C 549.9710083007812 138.43333435058594 549.260986328125 137.43666076660156 549.260986328125 136.1300048828125 C 549.260986328125 135.0366668701172 549.7210083007812 134.1233367919922 550.6409912109375 133.38999938964844 C 551.5676879882812 132.6566619873047 552.7410278320312 132.2899932861328 554.1610107421875 132.2899932861328 C 555.67431640625 132.2899932861328 556.8976440429688 132.663330078125 557.8309936523438 133.41000366210938 C 558.7643432617188 134.163330078125 559.2310180664062 135.13665771484375 559.2310180664062 136.3300018310547 L 556.3909912109375 136.3300018310547 C 556.3909912109375 135.7833251953125 556.1876831054688 135.32666015625 555.781005859375 134.95999145507812 C 555.3743286132812 134.59999084472656 554.8343505859375 134.4199981689453 554.1610107421875 134.4199981689453 C 553.5343017578125 134.4199981689453 553.0243530273438 134.56332397460938 552.6309814453125 134.84999084472656 C 552.2376708984375 135.14332580566406 552.041015625 135.52999877929688 552.041015625 136.00999450683594 C 552.041015625 136.4499969482422 552.2243041992188 136.7899932861328 552.5910034179688 137.02999877929688 C 552.9576416015625 137.2766571044922 553.7009887695312 137.52000427246094 554.8209838867188 137.75999450683594 C 555.934326171875 138.0066680908203 556.8109741210938 138.3000030517578 557.4509887695312 138.63999938964844 C 558.0843505859375 138.97999572753906 558.5543212890625 139.38999938964844 558.8610229492188 139.8699951171875 C 559.17431640625 140.34332275390625 559.3309936523438 140.9199981689453 559.3309936523438 141.59999084472656 C 559.3309936523438 142.739990234375 558.857666015625 143.663330078125 557.9110107421875 144.3699951171875 C 556.96435546875 145.07666015625 555.7243041992188 145.42999267578125 554.1909790039062 145.42999267578125 C 553.1576538085938 145.42999267578125 552.2343139648438 145.2433319091797 551.4210205078125 144.8699951171875 C 550.607666015625 144.4966583251953 549.9743041992188 143.97999572753906 549.52099609375 143.3199920654297 C 549.0676879882812 142.66665649414062 548.8410034179688 141.95999145507812 548.8410034179688 141.1999969482422 L 551.6010131835938 141.1999969482422 C 551.6409912109375 141.8733367919922 551.8976440429688 142.39332580566406 552.3709716796875 142.75999450683594 C 552.837646484375 143.1199951171875 553.4576416015625 143.3000030517578 554.2310180664062 143.3000030517578 C 554.9776611328125 143.3000030517578 555.5476684570312 143.1566619873047 555.9409790039062 142.8699951171875 C 556.3343505859375 142.58999633789062 556.531005859375 142.21665954589844 556.531005859375 141.75 ZM 565.3776245117188 129.44000244140625 L 565.3776245117188 132.51998901367188 L 567.6176147460938 132.51998901367188 L 567.6176147460938 134.6300048828125 L 565.3776245117188 134.6300048828125 L 565.3776245117188 141.70999145507812 C 565.3776245117188 142.19000244140625 565.470947265625 142.5399932861328 565.6575927734375 142.75999450683594 C 565.8509521484375 142.97332763671875 566.1942749023438 143.0800018310547 566.6876220703125 143.0800018310547 C 567.0142822265625 143.0800018310547 567.3475952148438 143.0399932861328 567.6876220703125 142.95999145507812 L 567.6876220703125 145.16000366210938 C 567.0342407226562 145.33999633789062 566.4075927734375 145.42999267578125 565.8076171875 145.42999267578125 C 563.6209106445312 145.42999267578125 562.527587890625 144.22332763671875 562.527587890625 141.80999755859375 L 562.527587890625 134.6300048828125 L 560.4376220703125 134.6300048828125 L 560.4376220703125 132.51998901367188 L 562.527587890625 132.51998901367188 L 562.527587890625 129.44000244140625 L 565.3776245117188 129.44000244140625 ZM 576.4279174804688 135.1199951171875 C 576.0546264648438 135.05999755859375 575.66796875 135.02999877929688 575.2679443359375 135.02999877929688 C 573.9613037109375 135.02999877929688 573.081298828125 135.52999877929688 572.6279296875 136.52999877929688 L 572.6279296875 145.1999969482422 L 569.7779541015625 145.1999969482422 L 569.7779541015625 132.51998901367188 L 572.4979248046875 132.51998901367188 L 572.5679321289062 133.94000244140625 C 573.254638671875 132.83999633789062 574.2079467773438 132.2899932861328 575.4279174804688 132.2899932861328 C 575.8345947265625 132.2899932861328 576.1712646484375 132.34332275390625 576.4379272460938 132.4499969482422 L 576.4279174804688 135.1199951171875 ZM 585.4537353515625 145.1999969482422 C 585.3270874023438 144.95999145507812 585.2171020507812 144.56666564941406 585.123779296875 144.02000427246094 C 584.2171020507812 144.95999145507812 583.1071166992188 145.42999267578125 581.7937622070312 145.42999267578125 C 580.5204467773438 145.42999267578125 579.4804077148438 145.06666564941406 578.6737670898438 144.33999633789062 C 577.8670654296875 143.6133270263672 577.4637451171875 142.71665954589844 577.4637451171875 141.64999389648438 C 577.4637451171875 140.29666137695312 577.9671020507812 139.25999450683594 578.9737548828125 138.5399932861328 C 579.9804077148438 137.81332397460938 581.4171142578125 137.4499969482422 583.2837524414062 137.4499969482422 L 585.0237426757812 137.4499969482422 L 585.0237426757812 136.6199951171875 C 585.0237426757812 135.96665954589844 584.8404541015625 135.44332885742188 584.4737548828125 135.0500030517578 C 584.1071166992188 134.64999389648438 583.5504150390625 134.4499969482422 582.8037719726562 134.4499969482422 C 582.1504516601562 134.4499969482422 581.6170654296875 134.6133270263672 581.2037353515625 134.94000244140625 C 580.7904052734375 135.26666259765625 580.583740234375 135.67999267578125 580.583740234375 136.17999267578125 L 577.7337646484375 136.17999267578125 C 577.7337646484375 135.47999572753906 577.9671020507812 134.8300018310547 578.4337768554688 134.22999572753906 C 578.8937377929688 133.6233367919922 579.5204467773438 133.14666748046875 580.3137817382812 132.8000030517578 C 581.1071166992188 132.45999145507812 581.9904174804688 132.2899932861328 582.9637451171875 132.2899932861328 C 584.450439453125 132.2899932861328 585.6337280273438 132.663330078125 586.5137329101562 133.41000366210938 C 587.4004516601562 134.14999389648438 587.853759765625 135.19667053222656 587.873779296875 136.5500030517578 L 587.873779296875 142.27000427246094 C 587.873779296875 143.41000366210938 588.0337524414062 144.3199920654297 588.353759765625 145 L 588.353759765625 145.1999969482422 L 585.4537353515625 145.1999969482422 M 582.32373046875 143.14999389648438 C 582.8837280273438 143.14999389648438 583.410400390625 143.01333618164062 583.9037475585938 142.739990234375 C 584.4037475585938 142.46665954589844 584.777099609375 142.09999084472656 585.0237426757812 141.63999938964844 L 585.0237426757812 139.25 L 583.4937744140625 139.25 C 582.4404296875 139.25 581.6470947265625 139.43333435058594 581.11376953125 139.8000030517578 C 580.5804443359375 140.16665649414062 580.3137817382812 140.68666076660156 580.3137817382812 141.36000061035156 C 580.3137817382812 141.9066619873047 580.4970703125 142.33999633789062 580.86376953125 142.66000366210938 C 581.2237548828125 142.98666381835938 581.71044921875 143.14999389648438 582.32373046875 143.14999389648438 Z" transform="matrix(0.5912304520606995, 0, 0, 0.5912304520606995, -247.43980407714844, -65.94732666015625)" style="fill: rgb(115, 131, 255); white-space: pre; color: rgb(115, 131, 255); fill-opacity: 1;"/><path d="M 577.5133056640625 136.7899932861328 C 577.2999267578125 138.58999633789062 576.63330078125 139.97999572753906 575.5133056640625 140.95999145507812 C 574.3932495117188 141.94000244140625 572.9032592773438 142.42999267578125 571.0432739257812 142.42999267578125 C 569.0299682617188 142.42999267578125 567.4166259765625 141.70999145507812 566.2032470703125 140.27000427246094 C 564.9832763671875 138.82333374023438 564.373291015625 136.88999938964844 564.373291015625 134.47000122070312 L 564.373291015625 132.8199920654297 C 564.373291015625 131.239990234375 564.6566162109375 129.84666442871094 565.2232666015625 128.63999938964844 C 565.7899169921875 127.43999481201172 566.59326171875 126.51666259765625 567.63330078125 125.8699951171875 C 568.6732788085938 125.22332763671875 569.8765869140625 124.89999389648438 571.2432861328125 124.89999389648438 C 573.056640625 124.89999389648438 574.5099487304688 125.40666198730469 575.603271484375 126.41999816894531 C 576.6965942382812 127.43333435058594 577.333251953125 128.8333282470703 577.5133056640625 130.6199951171875 L 575.2532958984375 130.6199951171875 C 575.0599365234375 129.25999450683594 574.6365966796875 128.2766571044922 573.9832763671875 127.66999816894531 C 573.3299560546875 127.0566635131836 572.4166259765625 126.75 571.2432861328125 126.75 C 569.8099365234375 126.75 568.6832885742188 127.28333282470703 567.86328125 128.34999084472656 C 567.0499267578125 129.41000366210938 566.6432495117188 130.9199981689453 566.6432495117188 132.8800048828125 L 566.6432495117188 134.5399932861328 C 566.6432495117188 136.38665771484375 567.0299682617188 137.85665893554688 567.8032836914062 138.9499969482422 C 568.5765991210938 140.0433349609375 569.6566162109375 140.58999633789062 571.0432739257812 140.58999633789062 C 572.296630859375 140.58999633789062 573.256591796875 140.30667114257812 573.9232788085938 139.739990234375 C 574.5899658203125 139.17999267578125 575.0332641601562 138.19667053222656 575.2532958984375 136.7899932861328 L 577.5133056640625 136.7899932861328 ZM 582.600341796875 142.1999969482422 L 580.4303588867188 142.1999969482422 L 580.4303588867188 124.19999694824219 L 582.600341796875 124.19999694824219 L 582.600341796875 142.1999969482422 ZM 588.423095703125 142.1999969482422 L 586.2531127929688 142.1999969482422 L 586.2531127929688 129.51998901367188 L 588.423095703125 129.51998901367188 L 588.423095703125 142.1999969482422 M 586.0731201171875 126.15999603271484 C 586.0731201171875 125.8066635131836 586.1797485351562 125.50999450683594 586.39306640625 125.2699966430664 C 586.6130981445312 125.02333068847656 586.93310546875 124.89999389648438 587.3530883789062 124.89999389648438 C 587.7730712890625 124.89999389648438 588.0930786132812 125.02333068847656 588.3131103515625 125.2699966430664 C 588.5330810546875 125.50999450683594 588.64306640625 125.8066635131836 588.64306640625 126.15999603271484 C 588.64306640625 126.50666046142578 588.5330810546875 126.79999542236328 588.3131103515625 127.03999328613281 C 588.0930786132812 127.27333068847656 587.7730712890625 127.38999938964844 587.3530883789062 127.38999938964844 C 586.93310546875 127.38999938964844 586.6130981445312 127.27333068847656 586.39306640625 127.03999328613281 C 586.1797485351562 126.79999542236328 586.0731201171875 126.50666046142578 586.0731201171875 126.15999603271484 ZM 597.1458129882812 142.42999267578125 C 595.42578125 142.42999267578125 594.0291137695312 141.86666870117188 592.955810546875 140.739990234375 C 591.8757934570312 139.6133270263672 591.3358154296875 138.10333251953125 591.3358154296875 136.20999145507812 L 591.3358154296875 135.80999755859375 C 591.3358154296875 134.55667114257812 591.5758056640625 133.43333435058594 592.0557861328125 132.44000244140625 C 592.5357666015625 131.4533233642578 593.2091064453125 130.67999267578125 594.0758056640625 130.1199951171875 C 594.935791015625 129.56666564941406 595.869140625 129.2899932861328 596.8757934570312 129.2899932861328 C 598.5291137695312 129.2899932861328 599.8124389648438 129.8300018310547 600.7257690429688 130.91000366210938 C 601.6390991210938 131.9966583251953 602.0957641601562 133.55332946777344 602.0957641601562 135.5800018310547 L 602.0957641601562 136.47999572753906 L 593.5057983398438 136.47999572753906 C 593.532470703125 137.73333740234375 593.8958129882812 138.7433319091797 594.5957641601562 139.50999450683594 C 595.2957763671875 140.2766571044922 596.185791015625 140.66000366210938 597.2658081054688 140.66000366210938 C 598.032470703125 140.66000366210938 598.6791381835938 140.5066680908203 599.205810546875 140.1999969482422 C 599.7391357421875 139.88665771484375 600.205810546875 139.47000122070312 600.6057739257812 138.9499969482422 L 601.92578125 139.989990234375 C 600.8657836914062 141.61666870117188 599.2724609375 142.42999267578125 597.1458129882812 142.42999267578125 M 596.8757934570312 131.0699920654297 C 596.00244140625 131.0699920654297 595.2691040039062 131.38665771484375 594.67578125 132.01998901367188 C 594.0824584960938 132.66000366210938 593.7157592773438 133.55332946777344 593.5758056640625 134.6999969482422 L 599.92578125 134.6999969482422 L 599.92578125 134.5399932861328 C 599.8657836914062 133.43333435058594 599.569091796875 132.5800018310547 599.0357666015625 131.97999572753906 C 598.50244140625 131.3733367919922 597.782470703125 131.0699920654297 596.8757934570312 131.0699920654297 ZM 606.6473388671875 129.51998901367188 L 606.7173461914062 131.11000061035156 C 607.6840209960938 129.89666748046875 608.95068359375 129.2899932861328 610.517333984375 129.2899932861328 C 613.1973266601562 129.2899932861328 614.54736328125 130.8000030517578 614.5673217773438 133.8199920654297 L 614.5673217773438 142.1999969482422 L 612.4073486328125 142.1999969482422 L 612.4073486328125 133.80999755859375 C 612.3939819335938 132.89666748046875 612.1840209960938 132.22000122070312 611.77734375 131.77999877929688 C 611.364013671875 131.34666442871094 610.7239990234375 131.1300048828125 609.8573608398438 131.1300048828125 C 609.1573486328125 131.1300048828125 608.5406494140625 131.31666564941406 608.00732421875 131.69000244140625 C 607.4739990234375 132.06332397460938 607.0606689453125 132.55332946777344 606.767333984375 133.16000366210938 L 606.767333984375 142.1999969482422 L 604.5973510742188 142.1999969482422 L 604.5973510742188 129.51998901367188 L 606.6473388671875 129.51998901367188 ZM 620.776123046875 126.44999694824219 L 620.776123046875 129.51998901367188 L 623.1461181640625 129.51998901367188 L 623.1461181640625 131.1999969482422 L 620.776123046875 131.1999969482422 L 620.776123046875 139.05999755859375 C 620.776123046875 139.56666564941406 620.8827514648438 139.94667053222656 621.0961303710938 140.1999969482422 C 621.3027954101562 140.4533233642578 621.6627807617188 140.5800018310547 622.1760864257812 140.5800018310547 C 622.4227905273438 140.5800018310547 622.76611328125 140.5333251953125 623.2061157226562 140.44000244140625 L 623.2061157226562 142.1999969482422 C 622.6327514648438 142.35333251953125 622.0761108398438 142.42999267578125 621.5361328125 142.42999267578125 C 620.5694580078125 142.42999267578125 619.8394165039062 142.13999938964844 619.3461303710938 141.55999755859375 C 618.852783203125 140.97332763671875 618.6060791015625 140.13999938964844 618.6060791015625 139.05999755859375 L 618.6060791015625 131.1999969482422 L 616.3060913085938 131.1999969482422 L 616.3060913085938 129.51998901367188 L 618.6060791015625 129.51998901367188 L 618.6060791015625 126.44999694824219 L 620.776123046875 126.44999694824219 ZM 630.1839599609375 135.83999633789062 L 624.4639282226562 135.83999633789062 L 624.4639282226562 134.0699920654297 L 630.1839599609375 134.0699920654297 L 630.1839599609375 135.83999633789062 ZM 637.663330078125 134.58999633789062 C 635.72998046875 134.0366668701172 634.3233032226562 133.35665893554688 633.4432983398438 132.5500030517578 C 632.5700073242188 131.7433319091797 632.13330078125 130.7466583251953 632.13330078125 129.55999755859375 C 632.13330078125 128.2133331298828 632.6699829101562 127.0999984741211 633.7433471679688 126.22000122070312 C 634.816650390625 125.33999633789062 636.2133178710938 124.89999389648438 637.933349609375 124.89999389648438 C 639.1066284179688 124.89999389648438 640.1499633789062 125.12666320800781 641.0632934570312 125.57999420166016 C 641.9833374023438 126.03333282470703 642.6932983398438 126.65999603271484 643.1932983398438 127.45999908447266 C 643.7000122070312 128.25332641601562 643.9533081054688 129.1233367919922 643.9533081054688 130.0699920654297 L 641.6932983398438 130.0699920654297 C 641.6932983398438 129.0366668701172 641.3633422851562 128.22666931152344 640.7033081054688 127.63999938964844 C 640.0499877929688 127.04666137695312 639.1266479492188 126.75 637.933349609375 126.75 C 636.8200073242188 126.75 635.9533081054688 126.99666595458984 635.3333129882812 127.48999786376953 C 634.7133178710938 127.9766616821289 634.4033203125 128.65333557128906 634.4033203125 129.51998901367188 C 634.4033203125 130.2133331298828 634.6966552734375 130.8000030517578 635.2833251953125 131.27999877929688 C 635.8766479492188 131.75999450683594 636.88330078125 132.1999969482422 638.3033447265625 132.59999084472656 C 639.7166748046875 133 640.8233032226562 133.44000244140625 641.623291015625 133.9199981689453 C 642.4299926757812 134.39999389648438 643.0266723632812 134.95999145507812 643.413330078125 135.59999084472656 C 643.7999877929688 136.239990234375 643.9933471679688 136.9933319091797 643.9933471679688 137.86000061035156 C 643.9933471679688 139.2466583251953 643.4533081054688 140.35665893554688 642.373291015625 141.19000244140625 C 641.2933349609375 142.01666259765625 639.8499755859375 142.42999267578125 638.0433349609375 142.42999267578125 C 636.8766479492188 142.42999267578125 635.7833251953125 142.2066650390625 634.7633056640625 141.75999450683594 C 633.75 141.31332397460938 632.9666748046875 140.69667053222656 632.413330078125 139.91000366210938 C 631.8666381835938 139.12998962402344 631.5933227539062 138.2433319091797 631.5933227539062 137.25 L 633.8533325195312 137.25 C 633.8533325195312 138.2833251953125 634.2333374023438 139.09999084472656 634.9933471679688 139.6999969482422 C 635.7532958984375 140.2933349609375 636.7699584960938 140.58999633789062 638.0433349609375 140.58999633789062 C 639.2366333007812 140.58999633789062 640.1499633789062 140.34999084472656 640.7833251953125 139.8699951171875 C 641.4099731445312 139.38333129882812 641.7233276367188 138.72332763671875 641.7233276367188 137.88999938964844 C 641.7233276367188 137.0500030517578 641.433349609375 136.40333557128906 640.8533325195312 135.9499969482422 C 640.2666625976562 135.489990234375 639.2033081054688 135.0366668701172 637.663330078125 134.58999633789062 ZM 648.887939453125 142.1999969482422 L 646.7179565429688 142.1999969482422 L 646.7179565429688 129.51998901367188 L 648.887939453125 129.51998901367188 L 648.887939453125 142.1999969482422 M 646.5379638671875 126.15999603271484 C 646.5379638671875 125.8066635131836 646.6445922851562 125.50999450683594 646.85791015625 125.2699966430664 C 647.0779418945312 125.02333068847656 647.39794921875 124.89999389648438 647.8179321289062 124.89999389648438 C 648.2379150390625 124.89999389648438 648.5579223632812 125.02333068847656 648.7779541015625 125.2699966430664 C 648.9979248046875 125.50999450683594 649.10791015625 125.8066635131836 649.10791015625 126.15999603271484 C 649.10791015625 126.50666046142578 648.9979248046875 126.79999542236328 648.7779541015625 127.03999328613281 C 648.5579223632812 127.27333068847656 648.2379150390625 127.38999938964844 647.8179321289062 127.38999938964844 C 647.39794921875 127.38999938964844 647.0779418945312 127.27333068847656 646.85791015625 127.03999328613281 C 646.6445922851562 126.79999542236328 646.5379638671875 126.50666046142578 646.5379638671875 126.15999603271484 ZM 651.8206787109375 135.75 C 651.8206787109375 133.80999755859375 652.2839965820312 132.2466583251953 653.210693359375 131.05999755859375 C 654.1306762695312 129.8800048828125 655.3373413085938 129.2899932861328 656.8306884765625 129.2899932861328 C 658.3106689453125 129.2899932861328 659.4840087890625 129.79666137695312 660.3507080078125 130.80999755859375 L 660.3507080078125 124.19999694824219 L 662.5206909179688 124.19999694824219 L 662.5206909179688 142.1999969482422 L 660.5307006835938 142.1999969482422 L 660.4207153320312 140.83999633789062 C 659.5540161132812 141.89999389648438 658.3473510742188 142.42999267578125 656.8007202148438 142.42999267578125 C 655.3340454101562 142.42999267578125 654.1373901367188 141.8300018310547 653.210693359375 140.62998962402344 C 652.2839965820312 139.42332458496094 651.8206787109375 137.85333251953125 651.8206787109375 135.9199981689453 L 651.8206787109375 135.75 M 653.99072265625 136 C 653.99072265625 137.44000244140625 654.287353515625 138.56666564941406 654.8806762695312 139.37998962402344 C 655.4739990234375 140.18666076660156 656.2940063476562 140.58999633789062 657.3406982421875 140.58999633789062 C 658.720703125 140.58999633789062 659.7239990234375 139.97332763671875 660.3507080078125 138.739990234375 L 660.3507080078125 132.9199981689453 C 659.7040405273438 131.72666931152344 658.710693359375 131.1300048828125 657.3706665039062 131.1300048828125 C 656.3040161132812 131.1300048828125 655.4739990234375 131.5399932861328 654.8806762695312 132.36000061035156 C 654.287353515625 133.17999267578125 653.99072265625 134.39332580566406 653.99072265625 136 ZM 671.1423950195312 142.42999267578125 C 669.42236328125 142.42999267578125 668.0256958007812 141.86666870117188 666.952392578125 140.739990234375 C 665.8723754882812 139.6133270263672 665.3323974609375 138.10333251953125 665.3323974609375 136.20999145507812 L 665.3323974609375 135.80999755859375 C 665.3323974609375 134.55667114257812 665.5723876953125 133.43333435058594 666.0523681640625 132.44000244140625 C 666.5323486328125 131.4533233642578 667.2056884765625 130.67999267578125 668.0723876953125 130.1199951171875 C 668.932373046875 129.56666564941406 669.86572265625 129.2899932861328 670.8723754882812 129.2899932861328 C 672.5256958007812 129.2899932861328 673.8090209960938 129.8300018310547 674.7223510742188 130.91000366210938 C 675.6356811523438 131.9966583251953 676.0923461914062 133.55332946777344 676.0923461914062 135.5800018310547 L 676.0923461914062 136.47999572753906 L 667.5023803710938 136.47999572753906 C 667.529052734375 137.73333740234375 667.8923950195312 138.7433319091797 668.5923461914062 139.50999450683594 C 669.2923583984375 140.2766571044922 670.182373046875 140.66000366210938 671.2623901367188 140.66000366210938 C 672.029052734375 140.66000366210938 672.6757202148438 140.5066680908203 673.202392578125 140.1999969482422 C 673.7357177734375 139.88665771484375 674.202392578125 139.47000122070312 674.6023559570312 138.9499969482422 L 675.92236328125 139.989990234375 C 674.8623657226562 141.61666870117188 673.26904296875 142.42999267578125 671.1423950195312 142.42999267578125 M 670.8723754882812 131.0699920654297 C 669.9990234375 131.0699920654297 669.2656860351562 131.38665771484375 668.67236328125 132.01998901367188 C 668.0790405273438 132.66000366210938 667.7123413085938 133.55332946777344 667.5723876953125 134.6999969482422 L 673.92236328125 134.6999969482422 L 673.92236328125 134.5399932861328 C 673.8623657226562 133.43333435058594 673.565673828125 132.5800018310547 673.0323486328125 131.97999572753906 C 672.4990234375 131.3733367919922 671.779052734375 131.0699920654297 670.8723754882812 131.0699920654297 ZM 694.2838134765625 134.66000366210938 L 687.123779296875 134.66000366210938 L 687.123779296875 142.1999969482422 L 684.873779296875 142.1999969482422 L 684.873779296875 125.13999938964844 L 695.4437866210938 125.13999938964844 L 695.4437866210938 126.98999786376953 L 687.123779296875 126.98999786376953 L 687.123779296875 132.8199920654297 L 694.2838134765625 132.8199920654297 L 694.2838134765625 134.66000366210938 ZM 705.3682250976562 140.9499969482422 C 704.5216064453125 141.93666076660156 703.2816162109375 142.42999267578125 701.6482543945312 142.42999267578125 C 700.3015747070312 142.42999267578125 699.27490234375 142.0399932861328 698.5682373046875 141.25999450683594 C 697.861572265625 140.47332763671875 697.5015869140625 139.30999755859375 697.48828125 137.77000427246094 L 697.48828125 129.51998901367188 L 699.6582641601562 129.51998901367188 L 699.6582641601562 137.70999145507812 C 699.6582641601562 139.62998962402344 700.4415893554688 140.58999633789062 702.0082397460938 140.58999633789062 C 703.6615600585938 140.58999633789062 704.7615966796875 139.97332763671875 705.3082275390625 138.739990234375 L 705.3082275390625 129.51998901367188 L 707.478271484375 129.51998901367188 L 707.478271484375 142.1999969482422 L 705.4182739257812 142.1999969482422 L 705.3682250976562 140.9499969482422 ZM 713.1253051757812 142.1999969482422 L 710.955322265625 142.1999969482422 L 710.955322265625 124.19999694824219 L 713.1253051757812 124.19999694824219 L 713.1253051757812 142.1999969482422 ZM 718.947998046875 142.1999969482422 L 716.7780151367188 142.1999969482422 L 716.7780151367188 124.19999694824219 L 718.947998046875 124.19999694824219 L 718.947998046875 142.1999969482422 ZM 726.9207763671875 135.83999633789062 L 721.2007446289062 135.83999633789062 L 721.2007446289062 134.0699920654297 L 726.9207763671875 134.0699920654297 L 726.9207763671875 135.83999633789062 ZM 741.16015625 126.98999786376953 L 735.6801147460938 126.98999786376953 L 735.6801147460938 142.1999969482422 L 733.4401245117188 142.1999969482422 L 733.4401245117188 126.98999786376953 L 727.9601440429688 126.98999786376953 L 727.9601440429688 125.13999938964844 L 741.16015625 125.13999938964844 L 741.16015625 126.98999786376953 ZM 747.4468994140625 142.42999267578125 C 745.7268676757812 142.42999267578125 744.3302001953125 141.86666870117188 743.2568969726562 140.739990234375 C 742.1768798828125 139.6133270263672 741.6369018554688 138.10333251953125 741.6369018554688 136.20999145507812 L 741.6369018554688 135.80999755859375 C 741.6369018554688 134.55667114257812 741.8768920898438 133.43333435058594 742.3568725585938 132.44000244140625 C 742.8368530273438 131.4533233642578 743.5101928710938 130.67999267578125 744.3768920898438 130.1199951171875 C 745.2368774414062 129.56666564941406 746.1702270507812 129.2899932861328 747.1768798828125 129.2899932861328 C 748.8302001953125 129.2899932861328 750.113525390625 129.8300018310547 751.02685546875 130.91000366210938 C 751.940185546875 131.9966583251953 752.3968505859375 133.55332946777344 752.3968505859375 135.5800018310547 L 752.3968505859375 136.47999572753906 L 743.806884765625 136.47999572753906 C 743.8335571289062 137.73333740234375 744.1968994140625 138.7433319091797 744.8968505859375 139.50999450683594 C 745.5968627929688 140.2766571044922 746.4868774414062 140.66000366210938 747.56689453125 140.66000366210938 C 748.3335571289062 140.66000366210938 748.980224609375 140.5066680908203 749.5068969726562 140.1999969482422 C 750.0402221679688 139.88665771484375 750.5068969726562 139.47000122070312 750.9068603515625 138.9499969482422 L 752.2268676757812 139.989990234375 C 751.1668701171875 141.61666870117188 749.5735473632812 142.42999267578125 747.4468994140625 142.42999267578125 M 747.1768798828125 131.0699920654297 C 746.3035278320312 131.0699920654297 745.5701904296875 131.38665771484375 744.9768676757812 132.01998901367188 C 744.383544921875 132.66000366210938 744.016845703125 133.55332946777344 743.8768920898438 134.6999969482422 L 750.2268676757812 134.6999969482422 L 750.2268676757812 134.5399932861328 C 750.1668701171875 133.43333435058594 749.8702392578125 132.5800018310547 749.3368530273438 131.97999572753906 C 748.8035278320312 131.3733367919922 748.0835571289062 131.0699920654297 747.1768798828125 131.0699920654297 ZM 759.1484375 134.14999389648438 L 761.9684448242188 129.51998901367188 L 764.4984130859375 129.51998901367188 L 760.3484497070312 135.7899932861328 L 764.62841796875 142.1999969482422 L 762.118408203125 142.1999969482422 L 759.1884155273438 137.4499969482422 L 756.2584228515625 142.1999969482422 L 753.7384033203125 142.1999969482422 L 758.0184326171875 135.7899932861328 L 753.868408203125 129.51998901367188 L 756.37841796875 129.51998901367188 L 759.1484375 134.14999389648438 ZM 769.7299194335938 126.44999694824219 L 769.7299194335938 129.51998901367188 L 772.0999145507812 129.51998901367188 L 772.0999145507812 131.1999969482422 L 769.7299194335938 131.1999969482422 L 769.7299194335938 139.05999755859375 C 769.7299194335938 139.56666564941406 769.8365478515625 139.94667053222656 770.0499267578125 140.1999969482422 C 770.256591796875 140.4533233642578 770.6165771484375 140.5800018310547 771.1298828125 140.5800018310547 C 771.3765869140625 140.5800018310547 771.7199096679688 140.5333251953125 772.159912109375 140.44000244140625 L 772.159912109375 142.1999969482422 C 771.5865478515625 142.35333251953125 771.0299072265625 142.42999267578125 770.4899291992188 142.42999267578125 C 769.5232543945312 142.42999267578125 768.793212890625 142.13999938964844 768.2999267578125 141.55999755859375 C 767.8065795898438 140.97332763671875 767.5598754882812 140.13999938964844 767.5598754882812 139.05999755859375 L 767.5598754882812 131.1999969482422 L 765.2598876953125 131.1999969482422 L 765.2598876953125 129.51998901367188 L 767.5598754882812 129.51998901367188 L 767.5598754882812 126.44999694824219 L 769.7299194335938 126.44999694824219 ZM 785.9376220703125 134.58999633789062 C 784.0042724609375 134.0366668701172 782.5975952148438 133.35665893554688 781.7175903320312 132.5500030517578 C 780.8442993164062 131.7433319091797 780.4075927734375 130.7466583251953 780.4075927734375 129.55999755859375 C 780.4075927734375 128.2133331298828 780.9442749023438 127.0999984741211 782.0176391601562 126.22000122070312 C 783.0909423828125 125.33999633789062 784.4876098632812 124.89999389648438 786.2076416015625 124.89999389648438 C 787.3809204101562 124.89999389648438 788.4242553710938 125.12666320800781 789.3375854492188 125.57999420166016 C 790.2576293945312 126.03333282470703 790.9675903320312 126.65999603271484 791.4675903320312 127.45999908447266 C 791.9743041992188 128.25332641601562 792.2276000976562 129.1233367919922 792.2276000976562 130.0699920654297 L 789.9675903320312 130.0699920654297 C 789.9675903320312 129.0366668701172 789.6376342773438 128.22666931152344 788.9776000976562 127.63999938964844 C 788.3242797851562 127.04666137695312 787.4009399414062 126.75 786.2076416015625 126.75 C 785.0942993164062 126.75 784.2276000976562 126.99666595458984 783.6076049804688 127.48999786376953 C 782.9876098632812 127.9766616821289 782.6776123046875 128.65333557128906 782.6776123046875 129.51998901367188 C 782.6776123046875 130.2133331298828 782.970947265625 130.8000030517578 783.5576171875 131.27999877929688 C 784.1509399414062 131.75999450683594 785.1575927734375 132.1999969482422 786.57763671875 132.59999084472656 C 787.990966796875 133 789.0975952148438 133.44000244140625 789.8975830078125 133.9199981689453 C 790.7042846679688 134.39999389648438 791.3009643554688 134.95999145507812 791.6876220703125 135.59999084472656 C 792.0742797851562 136.239990234375 792.2676391601562 136.9933319091797 792.2676391601562 137.86000061035156 C 792.2676391601562 139.2466583251953 791.7276000976562 140.35665893554688 790.6475830078125 141.19000244140625 C 789.567626953125 142.01666259765625 788.124267578125 142.42999267578125 786.317626953125 142.42999267578125 C 785.1509399414062 142.42999267578125 784.0576171875 142.2066650390625 783.03759765625 141.75999450683594 C 782.0242919921875 141.31332397460938 781.240966796875 140.69667053222656 780.6876220703125 139.91000366210938 C 780.1409301757812 139.12998962402344 779.8676147460938 138.2433319091797 779.8676147460938 137.25 L 782.1276245117188 137.25 C 782.1276245117188 138.2833251953125 782.5076293945312 139.09999084472656 783.2676391601562 139.6999969482422 C 784.027587890625 140.2933349609375 785.0442504882812 140.58999633789062 786.317626953125 140.58999633789062 C 787.5109252929688 140.58999633789062 788.4242553710938 140.34999084472656 789.0576171875 139.8699951171875 C 789.6842651367188 139.38333129882812 789.9976196289062 138.72332763671875 789.9976196289062 137.88999938964844 C 789.9976196289062 137.0500030517578 789.7076416015625 136.40333557128906 789.1276245117188 135.9499969482422 C 788.5409545898438 135.489990234375 787.4776000976562 135.0366668701172 785.9376220703125 134.58999633789062 ZM 800.062255859375 142.42999267578125 C 798.3422241210938 142.42999267578125 796.945556640625 141.86666870117188 795.8722534179688 140.739990234375 C 794.792236328125 139.6133270263672 794.2522583007812 138.10333251953125 794.2522583007812 136.20999145507812 L 794.2522583007812 135.80999755859375 C 794.2522583007812 134.55667114257812 794.4922485351562 133.43333435058594 794.9722290039062 132.44000244140625 C 795.4522094726562 131.4533233642578 796.1255493164062 130.67999267578125 796.9922485351562 130.1199951171875 C 797.8522338867188 129.56666564941406 798.7855834960938 129.2899932861328 799.792236328125 129.2899932861328 C 801.445556640625 129.2899932861328 802.7288818359375 129.8300018310547 803.6422119140625 130.91000366210938 C 804.5555419921875 131.9966583251953 805.01220703125 133.55332946777344 805.01220703125 135.5800018310547 L 805.01220703125 136.47999572753906 L 796.4222412109375 136.47999572753906 C 796.4489135742188 137.73333740234375 796.812255859375 138.7433319091797 797.51220703125 139.50999450683594 C 798.2122192382812 140.2766571044922 799.1022338867188 140.66000366210938 800.1822509765625 140.66000366210938 C 800.9489135742188 140.66000366210938 801.5955810546875 140.5066680908203 802.1222534179688 140.1999969482422 C 802.6555786132812 139.88665771484375 803.1222534179688 139.47000122070312 803.522216796875 138.9499969482422 L 804.8422241210938 139.989990234375 C 803.7822265625 141.61666870117188 802.1889038085938 142.42999267578125 800.062255859375 142.42999267578125 M 799.792236328125 131.0699920654297 C 798.9188842773438 131.0699920654297 798.185546875 131.38665771484375 797.5922241210938 132.01998901367188 C 796.9989013671875 132.66000366210938 796.6322021484375 133.55332946777344 796.4922485351562 134.6999969482422 L 802.8422241210938 134.6999969482422 L 802.8422241210938 134.5399932861328 C 802.7822265625 133.43333435058594 802.485595703125 132.5800018310547 801.9522094726562 131.97999572753906 C 801.4188842773438 131.3733367919922 800.6989135742188 131.0699920654297 799.792236328125 131.0699920654297 ZM 815.3438110351562 142.1999969482422 C 815.2171630859375 141.94667053222656 815.1138305664062 141.5 815.0338134765625 140.86000061035156 C 814.0271606445312 141.9066619873047 812.8238525390625 142.42999267578125 811.423828125 142.42999267578125 C 810.1771850585938 142.42999267578125 809.1538696289062 142.07666015625 808.3538208007812 141.3699951171875 C 807.5538330078125 140.663330078125 807.1538696289062 139.76666259765625 807.1538696289062 138.67999267578125 C 807.1538696289062 137.36000061035156 807.6538696289062 136.336669921875 808.6538696289062 135.61000061035156 C 809.6605224609375 134.8766632080078 811.0738525390625 134.50999450683594 812.8938598632812 134.50999450683594 L 815.0038452148438 134.50999450683594 L 815.0038452148438 133.51998901367188 C 815.0038452148438 132.75999450683594 814.7771606445312 132.1566619873047 814.3238525390625 131.70999145507812 C 813.8704833984375 131.2566680908203 813.203857421875 131.02999877929688 812.3238525390625 131.02999877929688 C 811.550537109375 131.02999877929688 810.9005126953125 131.22666931152344 810.3738403320312 131.6199951171875 C 809.84716796875 132.0066680908203 809.5838623046875 132.47999572753906 809.5838623046875 133.0399932861328 L 807.413818359375 133.0399932861328 C 807.413818359375 132.4066619873047 807.6371459960938 131.7933349609375 808.0838623046875 131.1999969482422 C 808.530517578125 130.6133270263672 809.1405029296875 130.14666748046875 809.913818359375 129.8000030517578 C 810.6804809570312 129.45999145507812 811.5238647460938 129.2899932861328 812.44384765625 129.2899932861328 C 813.9105224609375 129.2899932861328 815.0571899414062 129.65333557128906 815.8838500976562 130.3800048828125 C 816.7105102539062 131.1133270263672 817.1405029296875 132.1199951171875 817.173828125 133.39999389648438 L 817.173828125 139.239990234375 C 817.173828125 140.39999389648438 817.3204956054688 141.32333374023438 817.6138305664062 142.00999450683594 L 817.6138305664062 142.1999969482422 L 815.3438110351562 142.1999969482422 M 811.7438354492188 140.5500030517578 C 812.423828125 140.5500030517578 813.0671997070312 140.3733367919922 813.673828125 140.02000427246094 C 814.2871704101562 139.66665649414062 814.7305297851562 139.20999145507812 815.0038452148438 138.64999389648438 L 815.0038452148438 136.0500030517578 L 813.3038330078125 136.0500030517578 C 810.6505126953125 136.0500030517578 809.3238525390625 136.82666015625 809.3238525390625 138.37998962402344 C 809.3238525390625 139.05999755859375 809.550537109375 139.58999633789062 810.0038452148438 139.97000122070312 C 810.4505004882812 140.35665893554688 811.030517578125 140.5500030517578 811.7438354492188 140.5500030517578 ZM 826.6951904296875 131.47000122070312 C 826.3685302734375 131.41000366210938 826.0118408203125 131.3800048828125 825.6251831054688 131.3800048828125 C 824.2052001953125 131.3800048828125 823.2418212890625 131.98666381835938 822.7351684570312 133.1999969482422 L 822.7351684570312 142.1999969482422 L 820.565185546875 142.1999969482422 L 820.565185546875 129.51998901367188 L 822.6751708984375 129.51998901367188 L 822.7151489257812 130.989990234375 C 823.4218139648438 129.85665893554688 824.4285278320312 129.2899932861328 825.7351684570312 129.2899932861328 C 826.1551513671875 129.2899932861328 826.4751586914062 129.34332275390625 826.6951904296875 129.4499969482422 L 826.6951904296875 131.47000122070312 ZM 833.551513671875 140.66000366210938 C 834.3248901367188 140.66000366210938 834.9981689453125 140.42666625976562 835.571533203125 139.95999145507812 C 836.1515502929688 139.4933319091797 836.4715576171875 138.9066619873047 836.5315551757812 138.1999969482422 L 838.591552734375 138.1999969482422 C 838.551513671875 138.92666625976562 838.301513671875 139.6199951171875 837.841552734375 140.27999877929688 C 837.3748779296875 140.93333435058594 836.7581787109375 141.4566650390625 835.9915161132812 141.84999084472656 C 835.224853515625 142.23666381835938 834.4115600585938 142.42999267578125 833.551513671875 142.42999267578125 C 831.8248901367188 142.42999267578125 830.4515380859375 141.85665893554688 829.4315185546875 140.70999145507812 C 828.4115600585938 139.55667114257812 827.9015502929688 137.97999572753906 827.9015502929688 135.97999572753906 L 827.9015502929688 135.61000061035156 C 827.9015502929688 134.3766632080078 828.128173828125 133.27999877929688 828.58154296875 132.3199920654297 C 829.0348510742188 131.36000061035156 829.6848754882812 130.6133270263672 830.5315551757812 130.0800018310547 C 831.378173828125 129.55332946777344 832.378173828125 129.2899932861328 833.5315551757812 129.2899932861328 C 834.9581909179688 129.2899932861328 836.1415405273438 129.7133331298828 837.08154296875 130.55999755859375 C 838.0215454101562 131.413330078125 838.5248413085938 132.51998901367188 838.591552734375 133.8800048828125 L 836.5315551757812 133.8800048828125 C 836.4715576171875 133.05999755859375 836.1615600585938 132.38665771484375 835.6015625 131.86000061035156 C 835.0482177734375 131.3333282470703 834.3582153320312 131.0699920654297 833.5315551757812 131.0699920654297 C 832.4315185546875 131.0699920654297 831.5781860351562 131.46665954589844 830.9715576171875 132.25999450683594 C 830.3715209960938 133.05332946777344 830.071533203125 134.1999969482422 830.071533203125 135.6999969482422 L 830.071533203125 136.11000061035156 C 830.071533203125 137.5699920654297 830.3715209960938 138.69332885742188 830.9715576171875 139.47999572753906 C 831.571533203125 140.26666259765625 832.4315185546875 140.66000366210938 833.551513671875 140.66000366210938 ZM 843.1908569335938 131.05999755859375 C 844.15087890625 129.8800048828125 845.40087890625 129.2899932861328 846.9408569335938 129.2899932861328 C 849.620849609375 129.2899932861328 850.9708862304688 130.8000030517578 850.9908447265625 133.8199920654297 L 850.9908447265625 142.1999969482422 L 848.8308715820312 142.1999969482422 L 848.8308715820312 133.80999755859375 C 848.8175048828125 132.89666748046875 848.6075439453125 132.22000122070312 848.2008666992188 131.77999877929688 C 847.7875366210938 131.34666442871094 847.1475219726562 131.1300048828125 846.2808837890625 131.1300048828125 C 845.5808715820312 131.1300048828125 844.9641723632812 131.31666564941406 844.4308471679688 131.69000244140625 C 843.8975219726562 132.06332397460938 843.4841918945312 132.55332946777344 843.1908569335938 133.16000366210938 L 843.1908569335938 142.1999969482422 L 841.0208740234375 142.1999969482422 L 841.0208740234375 124.19999694824219 L 843.1908569335938 124.19999694824219 L 843.1908569335938 131.05999755859375 ZM 870.166015625 134.30999755859375 L 862.7659912109375 134.30999755859375 L 862.7659912109375 140.36000061035156 L 871.3560180664062 140.36000061035156 L 871.3560180664062 142.1999969482422 L 860.5159912109375 142.1999969482422 L 860.5159912109375 125.13999938964844 L 871.2360229492188 125.13999938964844 L 871.2360229492188 126.98999786376953 L 862.7659912109375 126.98999786376953 L 862.7659912109375 132.47000122070312 L 870.166015625 132.47000122070312 L 870.166015625 134.30999755859375 ZM 875.8631591796875 129.51998901367188 L 875.9331665039062 131.11000061035156 C 876.8998413085938 129.89666748046875 878.16650390625 129.2899932861328 879.733154296875 129.2899932861328 C 882.4131469726562 129.2899932861328 883.76318359375 130.8000030517578 883.7831420898438 133.8199920654297 L 883.7831420898438 142.1999969482422 L 881.6231689453125 142.1999969482422 L 881.6231689453125 133.80999755859375 C 881.6098022460938 132.89666748046875 881.3998413085938 132.22000122070312 880.9931640625 131.77999877929688 C 880.579833984375 131.34666442871094 879.9398193359375 131.1300048828125 879.0731811523438 131.1300048828125 C 878.3731689453125 131.1300048828125 877.7564697265625 131.31666564941406 877.22314453125 131.69000244140625 C 876.6898193359375 132.06332397460938 876.2764892578125 132.55332946777344 875.983154296875 133.16000366210938 L 875.983154296875 142.1999969482422 L 873.8131713867188 142.1999969482422 L 873.8131713867188 129.51998901367188 L 875.8631591796875 129.51998901367188 ZM 886.5419311523438 135.75 C 886.5419311523438 133.7766571044922 886.9985961914062 132.2066650390625 887.9119262695312 131.0399932861328 C 888.8252563476562 129.8733367919922 890.0352783203125 129.2899932861328 891.5419311523438 129.2899932861328 C 893.088623046875 129.2899932861328 894.2952880859375 129.836669921875 895.1619262695312 130.92999267578125 L 895.2719116210938 129.51998901367188 L 897.251953125 129.51998901367188 L 897.251953125 141.89999389648438 C 897.251953125 143.5399932861328 896.7652587890625 144.8300018310547 895.7919311523438 145.77000427246094 C 894.818603515625 146.71665954589844 893.5119018554688 147.19000244140625 891.8719482421875 147.19000244140625 C 890.9586181640625 147.19000244140625 890.0619506835938 146.9966583251953 889.1819458007812 146.61000061035156 C 888.30859375 146.21665954589844 887.6419067382812 145.67999267578125 887.1819458007812 145 L 888.3019409179688 143.6999969482422 C 889.2352294921875 144.84666442871094 890.3719482421875 145.4199981689453 891.7119140625 145.4199981689453 C 892.7719116210938 145.4199981689453 893.5952758789062 145.1233367919922 894.1819458007812 144.52999877929688 C 894.7752685546875 143.93666076660156 895.0718994140625 143.09999084472656 895.0718994140625 142.02000427246094 L 895.0718994140625 140.92999267578125 C 894.2052612304688 141.92999267578125 893.0219116210938 142.42999267578125 891.5219116210938 142.42999267578125 C 890.0352783203125 142.42999267578125 888.8319091796875 141.8333282470703 887.9119262695312 140.63999938964844 C 886.9985961914062 139.44667053222656 886.5419311523438 137.81666564941406 886.5419311523438 135.75 M 888.7119140625 136 C 888.7119140625 137.43333435058594 889.0052490234375 138.55667114257812 889.5919189453125 139.3699951171875 C 890.1785888671875 140.18333435058594 890.9985961914062 140.58999633789062 892.0519409179688 140.58999633789062 C 893.4252319335938 140.58999633789062 894.4319458007812 139.97000122070312 895.0718994140625 138.72999572753906 L 895.0718994140625 132.94000244140625 C 894.4052734375 131.73333740234375 893.4085693359375 131.1300048828125 892.0819091796875 131.1300048828125 C 891.028564453125 131.1300048828125 890.2052612304688 131.5399932861328 889.6119384765625 132.36000061035156 C 889.0119018554688 133.17999267578125 888.7119140625 134.39332580566406 888.7119140625 136 ZM 902.873291015625 142.1999969482422 L 900.7033081054688 142.1999969482422 L 900.7033081054688 129.51998901367188 L 902.873291015625 129.51998901367188 L 902.873291015625 142.1999969482422 M 900.5233154296875 126.15999603271484 C 900.5233154296875 125.8066635131836 900.6299438476562 125.50999450683594 900.84326171875 125.2699966430664 C 901.0632934570312 125.02333068847656 901.38330078125 124.89999389648438 901.8032836914062 124.89999389648438 C 902.2232666015625 124.89999389648438 902.5432739257812 125.02333068847656 902.7633056640625 125.2699966430664 C 902.9832763671875 125.50999450683594 903.09326171875 125.8066635131836 903.09326171875 126.15999603271484 C 903.09326171875 126.50666046142578 902.9832763671875 126.79999542236328 902.7633056640625 127.03999328613281 C 902.5432739257812 127.27333068847656 902.2232666015625 127.38999938964844 901.8032836914062 127.38999938964844 C 901.38330078125 127.38999938964844 901.0632934570312 127.27333068847656 900.84326171875 127.03999328613281 C 900.6299438476562 126.79999542236328 900.5233154296875 126.50666046142578 900.5233154296875 126.15999603271484 ZM 908.3860473632812 129.51998901367188 L 908.4560546875 131.11000061035156 C 909.4227294921875 129.89666748046875 910.6893920898438 129.2899932861328 912.2560424804688 129.2899932861328 C 914.93603515625 129.2899932861328 916.2860717773438 130.8000030517578 916.3060302734375 133.8199920654297 L 916.3060302734375 142.1999969482422 L 914.1460571289062 142.1999969482422 L 914.1460571289062 133.80999755859375 C 914.1326904296875 132.89666748046875 913.9227294921875 132.22000122070312 913.5160522460938 131.77999877929688 C 913.1027221679688 131.34666442871094 912.4627075195312 131.1300048828125 911.5960693359375 131.1300048828125 C 910.8960571289062 131.1300048828125 910.2793579101562 131.31666564941406 909.7460327148438 131.69000244140625 C 909.2127075195312 132.06332397460938 908.7993774414062 132.55332946777344 908.5060424804688 133.16000366210938 L 908.5060424804688 142.1999969482422 L 906.3360595703125 142.1999969482422 L 906.3360595703125 129.51998901367188 L 908.3860473632812 129.51998901367188 ZM 924.8348388671875 142.42999267578125 C 923.1148071289062 142.42999267578125 921.7181396484375 141.86666870117188 920.6448364257812 140.739990234375 C 919.5648193359375 139.6133270263672 919.0248413085938 138.10333251953125 919.0248413085938 136.20999145507812 L 919.0248413085938 135.80999755859375 C 919.0248413085938 134.55667114257812 919.2648315429688 133.43333435058594 919.7448120117188 132.44000244140625 C 920.2247924804688 131.4533233642578 920.8981323242188 130.67999267578125 921.7648315429688 130.1199951171875 C 922.6248168945312 129.56666564941406 923.5581665039062 129.2899932861328 924.5648193359375 129.2899932861328 C 926.2181396484375 129.2899932861328 927.50146484375 129.8300018310547 928.414794921875 130.91000366210938 C 929.328125 131.9966583251953 929.7847900390625 133.55332946777344 929.7847900390625 135.5800018310547 L 929.7847900390625 136.47999572753906 L 921.19482421875 136.47999572753906 C 921.2214965820312 137.73333740234375 921.5848388671875 138.7433319091797 922.2847900390625 139.50999450683594 C 922.9848022460938 140.2766571044922 923.8748168945312 140.66000366210938 924.954833984375 140.66000366210938 C 925.7214965820312 140.66000366210938 926.3681640625 140.5066680908203 926.8948364257812 140.1999969482422 C 927.4281616210938 139.88665771484375 927.8948364257812 139.47000122070312 928.2947998046875 138.9499969482422 L 929.6148071289062 139.989990234375 C 928.5548095703125 141.61666870117188 926.9614868164062 142.42999267578125 924.8348388671875 142.42999267578125 M 924.5648193359375 131.0699920654297 C 923.6914672851562 131.0699920654297 922.9581298828125 131.38665771484375 922.3648071289062 132.01998901367188 C 921.771484375 132.66000366210938 921.40478515625 133.55332946777344 921.2648315429688 134.6999969482422 L 927.6148071289062 134.6999969482422 L 927.6148071289062 134.5399932861328 C 927.5548095703125 133.43333435058594 927.2581787109375 132.5800018310547 926.7247924804688 131.97999572753906 C 926.1914672851562 131.3733367919922 925.4714965820312 131.0699920654297 924.5648193359375 131.0699920654297 Z" transform="matrix(0.2093871384859085, 0, 0, 0.2093871384859085, -71.81050109863281, -2.3900704383850098)" style="fill: rgb(160, 160, 255); white-space: pre; color: rgb(51, 51, 51);"/></svg>